<?xml version="1.0" encoding="utf-8"?>
<!-- Generator: Adobe Illustrator 23.0.5, SVG Export Plug-In . SVG Version: 6.00 Build 0)  -->
<svg version="1.1" id="Layer_1" xmlns="http://www.w3.org/2000/svg" xmlns:xlink="http://www.w3.org/1999/xlink" x="0px" y="0px"
	 viewBox="0 0 50.2 50.2" style="enable-background:new 0 0 50.2 50.2;" xml:space="preserve">
<style type="text/css">
	.st0{fill:#665AA7;}
	.st1{fill:none;stroke:#BBBDBF;stroke-width:0.2;stroke-miterlimit:10;}
	.st2{fill-rule:evenodd;clip-rule:evenodd;fill:#665AA7;}
</style>
<g>
	<path class="st0" d="M23.7-86.2v1.7h-2v2.3h2v5.7h2.5v-5.7H28l0.4-2.3h-2.2v-1.5c0-0.6,0.3-1.2,1.3-1.2h1v-1.9c0,0-0.9-0.2-1.8-0.2
		C24.9-89.2,23.7-88.1,23.7-86.2z"/>
	<path class="st1" d="M50.1-77.8c0,11-9,20-20,20h-10c-11,0-20-9-20-20v-10c0-11,9-20,20-20h10c11,0,20,9,20,20V-77.8z"/>
</g>
<g>
	<g>
		<g>
			<g>
				<path class="st0" d="M28.1,66.6c0.5,0.9,0.8,2.2,0.8,3.8c0,1.5-0.2,2.8-0.7,3.8c-0.7,1.4-1.7,2.1-3.2,2.1c-1.3,0-2.3-0.6-3-1.8
					c-0.5-1-0.8-2.3-0.8-3.9c0-1.3,0.2-2.4,0.5-3.3c0.6-1.7,1.7-2.5,3.3-2.5C26.4,64.8,27.5,65.4,28.1,66.6z M26.7,74.1
					c0.4-0.6,0.6-1.8,0.6-3.6c0-1.3-0.2-2.3-0.5-3.1c-0.3-0.8-0.9-1.2-1.8-1.2c-0.8,0-1.4,0.4-1.8,1.2c-0.4,0.8-0.6,1.9-0.6,3.4
					c0,1.1,0.1,2.1,0.4,2.8c0.4,1.1,1,1.6,1.9,1.6C25.7,75,26.3,74.7,26.7,74.1z"/>
			</g>
			<g>
				<path class="st0" d="M9.8,90.1c0,0.3,0.1,0.6,0.2,0.8c0.2,0.4,0.7,0.6,1.3,0.6c0.3,0,0.5,0,0.8-0.1c0.4-0.2,0.7-0.5,0.7-0.9
					c0-0.3-0.1-0.5-0.3-0.7c-0.2-0.1-0.5-0.2-0.9-0.3l-0.8-0.2c-0.5-0.1-0.8-0.2-1-0.4c-0.4-0.2-0.5-0.6-0.5-1.1
					c0-0.5,0.2-0.9,0.5-1.3c0.3-0.3,0.8-0.5,1.5-0.5c0.6,0,1.1,0.1,1.5,0.4c0.4,0.3,0.6,0.8,0.6,1.4h-0.7c0-0.3-0.1-0.5-0.2-0.7
					c-0.2-0.3-0.6-0.4-1.2-0.4c-0.4,0-0.8,0.1-0.9,0.3S10,87.5,10,87.7c0,0.3,0.1,0.5,0.3,0.6c0.1,0.1,0.5,0.2,1,0.3l0.8,0.2
					c0.4,0.1,0.7,0.2,0.9,0.4c0.4,0.3,0.5,0.7,0.5,1.2c0,0.6-0.2,1.1-0.7,1.4c-0.5,0.3-1,0.4-1.6,0.4c-0.7,0-1.2-0.2-1.6-0.5
					C9.2,91.2,9,90.8,9,90.1H9.8z"/>
				<path class="st0" d="M14.6,86.2h0.8v2.4h2.9v-2.4h0.8V92h-0.8v-2.7h-2.9V92h-0.8V86.2z"/>
				<path class="st0" d="M22,86.2h0.9L25,92h-0.9l-0.6-1.7h-2.3L20.7,92h-0.8L22,86.2z M23.3,89.6l-0.9-2.5l-0.9,2.5H23.3z"/>
				<path class="st0" d="M25.8,86.2h2.6c0.4,0,0.8,0.1,1.1,0.2c0.5,0.2,0.8,0.7,0.8,1.4c0,0.3-0.1,0.6-0.2,0.8
					c-0.1,0.2-0.3,0.4-0.6,0.5c0.2,0.1,0.4,0.2,0.5,0.4c0.1,0.1,0.2,0.4,0.2,0.7l0,0.8c0,0.2,0,0.4,0.1,0.5c0,0.2,0.1,0.3,0.3,0.4
					V92h-1c0,0,0-0.1-0.1-0.2c0-0.1,0-0.2,0-0.5l0-1c0-0.4-0.2-0.6-0.4-0.8c-0.1-0.1-0.4-0.1-0.7-0.1h-1.7V92h-0.8V86.2z M28.3,88.9
					c0.4,0,0.6-0.1,0.8-0.2c0.2-0.1,0.3-0.4,0.3-0.8c0-0.4-0.1-0.7-0.4-0.8c-0.2-0.1-0.4-0.1-0.6-0.1h-1.8v2H28.3z"/>
				<path class="st0" d="M31.6,86.2h4.2v0.7h-3.4v1.7h3.1v0.7h-3.1v1.9h3.5V92h-4.2V86.2z"/>
				<path class="st0" d="M37.3,90.1c0,0.3,0.1,0.6,0.2,0.8c0.2,0.4,0.7,0.6,1.3,0.6c0.3,0,0.5,0,0.8-0.1c0.4-0.2,0.7-0.5,0.7-0.9
					c0-0.3-0.1-0.5-0.3-0.7c-0.2-0.1-0.5-0.2-0.9-0.3l-0.8-0.2c-0.5-0.1-0.8-0.2-1-0.4c-0.4-0.2-0.5-0.6-0.5-1.1
					c0-0.5,0.2-0.9,0.5-1.3c0.3-0.3,0.8-0.5,1.5-0.5c0.6,0,1.1,0.1,1.5,0.4c0.4,0.3,0.6,0.8,0.6,1.4h-0.7c0-0.3-0.1-0.5-0.2-0.7
					c-0.2-0.3-0.6-0.4-1.2-0.4c-0.4,0-0.8,0.1-0.9,0.3c-0.2,0.2-0.3,0.4-0.3,0.7c0,0.3,0.1,0.5,0.3,0.6c0.1,0.1,0.5,0.2,1,0.3
					l0.8,0.2c0.4,0.1,0.7,0.2,0.9,0.4c0.4,0.3,0.5,0.7,0.5,1.2c0,0.6-0.2,1.1-0.7,1.4c-0.5,0.3-1,0.4-1.6,0.4
					c-0.7,0-1.2-0.2-1.6-0.5c-0.4-0.4-0.6-0.9-0.6-1.5H37.3z"/>
			</g>
		</g>
	</g>
	<path class="st1" d="M50.1,84.1c0,11-9,20-20,20h-10c-11,0-20-9-20-20v-10c0-11,9-20,20-20h10c11,0,20,9,20,20V84.1z"/>
</g>
<g>
	<g>
		<g>
			<path class="st0" d="M30.8,24.8c-0.1-3-2.5-5.4-5.6-5.4c-3,0-5.4,2.3-5.6,5.3c0,0.1,0,0.2,0,0.2c0,1,0.3,1.9,0.8,2.8
				c0,0,0,0,0,0.1l-1,2.9c0,0,0,0.1,0.1,0.1l3-1c0,0,0,0,0.1,0c0.8,0.4,1.7,0.7,2.6,0.7c3.1,0,5.6-2.5,5.6-5.5
				C30.8,24.9,30.8,24.8,30.8,24.8z M21.5,27.4c-0.5-0.7-0.8-1.6-0.8-2.5c0-0.1,0-0.3,0-0.4c0.2-2.3,2.2-4.1,4.5-4.1
				c2.3,0,4.3,1.8,4.5,4.1c0,0.1,0,0.2,0,0.3c0,2.5-2,4.5-4.5,4.5c-0.7,0-1.3-0.1-1.9-0.4c-0.2-0.1-0.5-0.3-0.6-0.3c0,0,0,0-0.1,0
				l-1.5,0.5c0,0-0.1,0-0.1-0.1l0.5-1.5c0,0,0-0.1,0-0.1C21.5,27.5,21.5,27.5,21.5,27.4z"/>
		</g>
		<path class="st0" d="M27.9,26.2c0-0.1-0.3-0.2-0.3-0.2c-0.1,0-0.8-0.4-0.9-0.4c-0.1,0-0.2-0.1-0.4,0.1c-0.1,0.1-0.3,0.4-0.4,0.5
			c-0.1,0.1-0.1,0.1-0.2,0c0,0-0.6-0.3-1.1-0.7c-0.4-0.3-0.6-0.7-0.7-0.9c-0.1-0.1,0-0.1,0.1-0.2c0,0,0.2-0.3,0.3-0.3
			c0,0,0.1-0.2,0.1-0.2c0.1-0.1,0-0.2,0-0.3c0,0-0.4-0.9-0.4-1c-0.1-0.2-0.2-0.3-0.3-0.3c-0.1,0-0.5,0-0.7,0.2l0,0
			c-0.1,0.2-0.5,0.5-0.5,1.1c0,0.1,0,0.3,0.1,0.5c0.1,0.3,0.3,0.6,0.5,0.9c0,0,0.4,0.5,0.5,0.7c0.5,0.6,1.2,1.1,1.8,1.3
			c0.8,0.3,1.1,0.4,1.3,0.4c0.1,0,0.3,0,0.3,0c0.2,0,0.8-0.3,0.9-0.7C27.9,26.5,27.9,26.2,27.9,26.2z"/>
	</g>
	<path class="st1" d="M50.1,30.1c0,11-9,20-20,20h-10c-11,0-20-9-20-20v-10c0-11,9-20,20-20h10c11,0,20,9,20,20V30.1z"/>
</g>
<g>
	<path class="st2" d="M25.1-34.7c-3.3,0-5.8,2.4-5.8,5.7c0,1.7,0.7,3.2,1.8,4.2c0.1,0.1,0.2,0.2,0.2,0.3l0,1c0,0.3,0.4,0.5,0.7,0.4
		l1.2-0.5c0.1,0,0.2-0.1,0.3,0c0.5,0.1,1.1,0.2,1.7,0.2c3.3,0,5.8-2.4,5.8-5.7C30.9-32.3,28.4-34.7,25.1-34.7z M28.6-30.3l-1.7,2.7
		c-0.3,0.4-0.9,0.5-1.3,0.2l-1.4-1c-0.1-0.1-0.3-0.1-0.4,0L22-27c-0.2,0.2-0.6-0.1-0.4-0.4l1.7-2.7c0.3-0.4,0.9-0.5,1.3-0.2l1.4,1
		c0.1,0.1,0.3,0.1,0.4,0l1.8-1.4C28.5-30.9,28.8-30.6,28.6-30.3z"/>
	<path class="st1" d="M50.1-23.9c0,11-9,20-20,20h-10c-11,0-20-9-20-20v-10c0-11,9-20,20-20h10c11,0,20,9,20,20V-23.9z"/>
</g>
<g>
	<path class="st1" d="M50.1,192c0,11-9,20-20,20h-10c-11,0-20-9-20-20v-10c0-11,9-20,20-20h10c11,0,20,9,20,20V192z"/>
	<path class="st0" d="M30.5,181.3H19.7c-0.6,0-1.1,0.5-1.1,1.1v1.3v6.4v4.5l3-3.4h8.9c0.6,0,1.1-0.5,1.1-1.1v-7.7
		C31.6,181.8,31.1,181.3,30.5,181.3z"/>
</g>
<g>
	<path class="st1" d="M50.1,138c0,11-9,20-20,20h-10c-11,0-20-9-20-20v-10c0-11,9-20,20-20h10c11,0,20,9,20,20V138z"/>
	<path class="st0" d="M18.7,131.3c0-0.2,0-0.3,0-0.5c0,0,0-0.1,0-0.1c0.1-1.1,0.5-1.9,1.4-2.6c0.8-0.6,1.8-0.8,2.8-0.5
		c0.7,0.2,1.3,0.7,1.8,1.3c0.1,0.2,0.3,0.4,0.4,0.6c0,0,0.1-0.1,0.1-0.1c0.2-0.3,0.4-0.6,0.6-0.8c0.9-1,2.1-1.3,3.3-0.9
		c1.2,0.4,1.9,1.3,2.2,2.5c0.1,0.2,0.1,0.5,0.1,0.7c0,0.2,0,0.3,0,0.5c0,0,0,0.1,0,0.1c-0.1,0.8-0.3,1.4-0.7,2.1
		c-0.4,0.7-1,1.3-1.6,1.8c-1.2,1.1-2.5,2.2-3.7,3.3c-0.2,0.2-0.4,0.2-0.6,0c-1-0.9-2-1.7-3-2.6c-0.8-0.7-1.5-1.3-2.1-2.1
		c-0.4-0.5-0.7-1.1-0.9-1.8C18.8,131.8,18.8,131.5,18.7,131.3z"/>
</g>
</svg>
