<?xml version="1.0" encoding="utf-8"?>
<!-- Generator: Adobe Illustrator 23.0.5, SVG Export Plug-In . SVG Version: 6.00 Build 0)  -->
<svg version="1.1" id="Layer_1" xmlns="http://www.w3.org/2000/svg" xmlns:xlink="http://www.w3.org/1999/xlink" x="0px" y="0px"
	 viewBox="0 0 50.2 50.2" style="enable-background:new 0 0 50.2 50.2;" xml:space="preserve">
<style type="text/css">
	.st0{fill:#665AA7;}
	.st1{fill:none;stroke:#BBBDBF;stroke-width:0.2;stroke-miterlimit:10;}
	.st2{fill-rule:evenodd;clip-rule:evenodd;fill:#665AA7;}
</style>
<g>
	<path class="st0" d="M23.7-248v1.7h-2v2.3h2v5.7h2.5v-5.7H28l0.4-2.3h-2.2v-1.5c0-0.6,0.3-1.2,1.3-1.2h1v-1.9c0,0-0.9-0.2-1.8-0.2
		C24.9-251.1,23.7-250,23.7-248z"/>
	<path class="st1" d="M50.1-239.7c0,11-9,20-20,20h-10c-11,0-20-9-20-20v-10c0-11,9-20,20-20h10c11,0,20,9,20,20V-239.7z"/>
</g>
<path class="st1" d="M50.1-77.8c0,11-9,20-20,20h-10c-11,0-20-9-20-20v-10c0-11,9-20,20-20h10c11,0,20,9,20,20V-77.8z"/>
<g>
	<g>
		<g>
			<path class="st0" d="M30.8-137.1c-0.1-3-2.5-5.4-5.6-5.4c-3,0-5.4,2.3-5.6,5.3c0,0.1,0,0.2,0,0.2c0,1,0.3,1.9,0.8,2.8
				c0,0,0,0,0,0.1l-1,2.9c0,0,0,0.1,0.1,0.1l3-1c0,0,0,0,0.1,0c0.8,0.4,1.7,0.7,2.6,0.7c3.1,0,5.6-2.5,5.6-5.5
				C30.8-137,30.8-137.1,30.8-137.1z M21.5-134.4c-0.5-0.7-0.8-1.6-0.8-2.5c0-0.1,0-0.3,0-0.4c0.2-2.3,2.2-4.1,4.5-4.1
				c2.3,0,4.3,1.8,4.5,4.1c0,0.1,0,0.2,0,0.3c0,2.5-2,4.5-4.5,4.5c-0.7,0-1.3-0.1-1.9-0.4c-0.2-0.1-0.5-0.3-0.6-0.3c0,0,0,0-0.1,0
				l-1.5,0.5c0,0-0.1,0-0.1-0.1l0.5-1.5c0,0,0-0.1,0-0.1C21.5-134.3,21.5-134.4,21.5-134.4z"/>
		</g>
		<path class="st0" d="M27.9-135.7c0-0.1-0.3-0.2-0.3-0.2c-0.1,0-0.8-0.4-0.9-0.4c-0.1,0-0.2-0.1-0.4,0.1c-0.1,0.1-0.3,0.4-0.4,0.5
			c-0.1,0.1-0.1,0.1-0.2,0c0,0-0.6-0.3-1.1-0.7c-0.4-0.3-0.6-0.7-0.7-0.9c-0.1-0.1,0-0.1,0.1-0.2c0,0,0.2-0.3,0.3-0.3
			c0,0,0.1-0.2,0.1-0.2c0.1-0.1,0-0.2,0-0.3c0,0-0.4-0.9-0.4-1c-0.1-0.2-0.2-0.3-0.3-0.3c-0.1,0-0.5,0-0.7,0.2l0,0
			c-0.1,0.2-0.5,0.5-0.5,1.1c0,0.1,0,0.3,0.1,0.5c0.1,0.3,0.3,0.6,0.5,0.9c0,0,0.4,0.5,0.5,0.7c0.5,0.6,1.2,1.1,1.8,1.3
			c0.8,0.3,1.1,0.4,1.3,0.4c0.1,0,0.3,0,0.3,0c0.2,0,0.8-0.3,0.9-0.7C27.9-135.3,27.9-135.6,27.9-135.7z"/>
	</g>
	<path class="st1" d="M50.1-131.8c0,11-9,20-20,20h-10c-11,0-20-9-20-20v-10c0-11,9-20,20-20h10c11,0,20,9,20,20V-131.8z"/>
</g>
<g>
	<path class="st2" d="M25.1-196.6c-3.3,0-5.8,2.4-5.8,5.7c0,1.7,0.7,3.2,1.8,4.2c0.1,0.1,0.2,0.2,0.2,0.3l0,1c0,0.3,0.4,0.5,0.7,0.4
		l1.2-0.5c0.1,0,0.2-0.1,0.3,0c0.5,0.1,1.1,0.2,1.7,0.2c3.3,0,5.8-2.4,5.8-5.7C30.9-194.2,28.4-196.6,25.1-196.6z M28.6-192.2
		l-1.7,2.7c-0.3,0.4-0.9,0.5-1.3,0.2l-1.4-1c-0.1-0.1-0.3-0.1-0.4,0l-1.8,1.4c-0.2,0.2-0.6-0.1-0.4-0.4l1.7-2.7
		c0.3-0.4,0.9-0.5,1.3-0.2l1.4,1c0.1,0.1,0.3,0.1,0.4,0l1.8-1.4C28.5-192.8,28.8-192.5,28.6-192.2z"/>
	<path class="st1" d="M50.1-185.7c0,11-9,20-20,20h-10c-11,0-20-9-20-20v-10c0-11,9-20,20-20h10c11,0,20,9,20,20V-185.7z"/>
</g>
<g>
	<path class="st1" d="M50.1,30.1c0,11-9,20-20,20h-10c-11,0-20-9-20-20v-10c0-11,9-20,20-20h10c11,0,20,9,20,20V30.1z"/>
	<path class="st0" d="M30.5,19.4H19.7c-0.6,0-1.1,0.5-1.1,1.1v1.3v6.4v4.5l3-3.4h8.9c0.6,0,1.1-0.5,1.1-1.1v-7.7
		C31.6,19.9,31.1,19.4,30.5,19.4z"/>
</g>
<g>
	<path class="st1" d="M50.1-23.9c0,11-9,20-20,20h-10c-11,0-20-9-20-20v-10c0-11,9-20,20-20h10c11,0,20,9,20,20V-23.9z"/>
	<path class="st0" d="M18.7-30.6c0-0.2,0-0.3,0-0.5c0,0,0-0.1,0-0.1c0.1-1.1,0.5-1.9,1.4-2.6c0.8-0.6,1.8-0.8,2.8-0.5
		c0.7,0.2,1.3,0.7,1.8,1.3c0.1,0.2,0.3,0.4,0.4,0.6c0,0,0.1-0.1,0.1-0.1c0.2-0.3,0.4-0.6,0.6-0.8c0.9-1,2.1-1.3,3.3-0.9
		c1.2,0.4,1.9,1.3,2.2,2.5c0.1,0.2,0.1,0.5,0.1,0.7c0,0.2,0,0.3,0,0.5c0,0,0,0.1,0,0.1c-0.1,0.8-0.3,1.4-0.7,2.1
		c-0.4,0.7-1,1.3-1.6,1.8c-1.2,1.1-2.5,2.2-3.7,3.3c-0.2,0.2-0.4,0.2-0.6,0c-1-0.9-2-1.7-3-2.6c-0.8-0.7-1.5-1.3-2.1-2.1
		c-0.4-0.5-0.7-1.1-0.9-1.8C18.8-30.1,18.8-30.3,18.7-30.6z"/>
</g>
</svg>
